<svg xmlns="http://www.w3.org/2000/svg" viewBox="0 0 220.84 227.3"><g id="Layer_2" data-name="Layer 2"><g id="Layer_1-2" data-name="Layer 1"><path d="M23.71,63.44c-10.82-17.36.7-37.1,21.53-32.3C70.37,37.45,82,65.8,88.17,88.58c.48,2,.87,3.86-1.18,5.34-3.91,2.76-21.52-11.24-27.07-13.28-5.81-3.63-.13-13-11.67-15.8-11-2.8-19.07,11.58-11,19.49,8.57,8.35,13.12-.85,19,1.86q11.16,6.57,22.4,13c17.41,13-50,14.53-55.78,9.54C-4.68,102-10.19,64.11,23.71,63.44Z"/><path d="M197.39,63.48c36,1.44,26.73,41.06-2.22,46-5.58,4-70,2.32-52.82-10.41,7.5-4.29,15-8.53,22.42-13,1.92-1.17,3.12-.75,4.88.17,10.35,6,21.66-6.13,15.68-15.94-5.59-9.9-21.78-6.22-21.49,5.94,0,5.7-19.92,13-25.08,17.2-20,8.63,13.45-52.92,22.14-55.2C181.26,20.25,212.87,35.94,197.39,63.48Z"/><path d="M23.63,163.87c-39-2.47-24.59-44.18,6-46.95,5.72-3.07,67.84-.59,48,11.77-7.06,4.07-14.15,8.06-21.15,12.24-1.88,1.12-3.19,1.35-5.3.13-10.08-6.18-21.81,6.13-15.61,15.92,5.41,9.84,21.46,6.18,21.45-5.47.07-2.25.58-3.62,2.61-4.75,7.54-4.21,15-8.61,22.48-12.92,20-8.43-13.53,53-22.22,55.27C39.66,207.12,7.93,191.26,23.63,163.87Z"/><path d="M110.55,13.54c18.56-30.67,48.6-3.4,38.83,24.15C147.21,48.43,127,83.91,115.9,83.44c-4.39-1.9-1.06-23.88-2.11-29.65.19-7.39,11.41-7,7.81-18.58-3.33-10.47-19-10.72-22.28.15-3.53,11.28,7.54,11.06,7.79,18.6-.15,8.32,0,16.64-.06,25-2.55,22-38.86-38.06-36.61-46.2C64.54,6,94.58-14.37,110.55,13.54Z"/><path d="M197.11,163.9c10.73,16,.19,37-21.17,32.4-24.83-6.2-36.31-33.5-42.82-55.88-.57-2.27-1.82-5,.75-6.93,2.51-3.64,21.84,11.18,26.63,12.86,6.68,3.76.21,13.1,12.07,16.1,10.63,3,19-11.12,11.52-19-8.43-9.31-13.61,1-20.31-2.84-7.14-4.25-14.35-8.36-21.55-12.5-17.26-13,50.7-14.54,56.43-9.32C226.09,126.33,230.86,163,197.11,163.9Z"/><path d="M110.51,214.09c-19.32,30-48.47,3.25-39-24.34,2.78-11.81,21.3-44.71,33.38-45.95,4.37.71,1.16,24.38,2.15,29.51,0,7.7-11.48,7.05-7.59,19.06,3.34,10.26,18.81,10.3,22.12-.06,3.61-11.89-7.23-11.3-7.77-18.53.16-8.31.07-16.63.06-24.95,2.13-22.93,38.5,36.9,36.46,44.83C156.56,220.81,127.78,241.94,110.51,214.09Z"/><path d="M129.14,113.82c-.59,24.71-36.9,24.59-37.37-.09C91.82,88.81,129.23,89,129.14,113.82Z"/></g></g></svg>