<svg xmlns="http://www.w3.org/2000/svg" viewBox="0 0 3238.15 3240.44"><g id="Layer_2" data-name="Layer 2"><g id="Layer_1-2" data-name="Layer 1"><path d="M192.2,1787.23c-39.77-28.49,30.78-63.79,46.77-87.46,20.2-28.57,41.94,26.29,52.12-8.93,35.74-78.16,47-70.23,0-146.4-10.68-31.06-33.43,27.24-53.91-5.71-15.08-26.62-76.58-49.62-52-82.57,4.76-4,4.48-3.89-.14-8.56-57.8-60.55-116.67-123.42-145.56-202.53C-80.13,970.34,83.35,622.51,376.55,547.77,426,531,477.64,533,528.08,526.24c-.81-101.15,24.11-206.39,84.13-288.76C772.75-33.2,1181.6-77.81,1403.77,143.34c71.87,80.73,30.11,25.09,83,43.87,13.82,29.42,85.08,52.82,53.31,87-19.34,12,75.91,50.76,91.08,50.1,27.87-10.43,51.37-26.7,77.29-42.41-32.69-16.72-11.52-41.8,7.73-59.25,77.52-89.17,44-3.25,93.83-52.91,72-83.27,171-134.13,276.64-158.55,336.14-68.81,617.64,189.2,629.46,515.88,141.64,1.61,283.72,57.6,380.64,163.19C3248,847.4,3282.45,1100.41,3176.32,1291c-30.29,61.51-76.4,110.51-125.58,157.11-8.37,15.09,27.5,20.07-4.12,44.36-124.06,146.74-46-62.68-133.94,132,63.53,156.29,38.91,18.71,98.27,86.75,92.51,79.66,3.21,54.84,69.27,109.17,136.28,129.84,190.28,334.65,138.64,516.09-48.17,169.1-187,307.76-356.33,355.32-46.76,11.69-95.55,20.34-143.77,17.34-15.58,5.15-6,32-9.38,45.69-11.3,325.28-366,568.15-674.95,459.15-95.9-27.44-176.29-89.51-243-161.25-3.74-4.56-7.06-5.36-10.54-.73-20.68,30.37-64.84-40.08-81.52-51.76-27-24.78,18.49-36.08-2.55-48.87-32-9.07-68.89-49.59-101.12-31.45-119.85,52.69-3.55,39.06-73.24,94.85-8.59,14.46-23.64,22.6-33.57,36.3-21.79,23.37-35.23-17.38-58.51,17.3-92.37,101.51-224,164.46-361,170.23-278.22,14.61-534.68-213.41-540.61-493.91,15.05-79.66-138.88,18-343.57-153.62C-63.19,2392.24-55.67,1984.55,192.2,1787.23ZM2109,1904.4c114.34,109.32,222.7,222.79,335.72,334.21,59.74,52.7,106.14,123.43,178.51,159.37,98.8,52.56,232.18,13.2,288.83-83.79,73.35-102.17,29.15-238.62-62.26-313.84-19-15.78-33.88,36.06-54.93,13-20.07-31-98.52-66-43.14-99.6,16-14.45-16-29.37-22.85-41.93-30.44-44.63-45.75,35.13-102.91-5.59-21.81-32.47-14.42-39.17-56.53-54.1-11.68-16.67-6.21-41.07-33.05-42-18.15-5.79-28.63-25.6-29.88-44.38-57.22-1.51-66.62-71.72-25.87-102.8,37.5-15.63-54.81-48.51-10.16-99,6.5-16.47,24.64-17.36,39.34-22.3,5-24.92,20.37-46.52,47.2-50.26,14.63-14.53,12.72-46.43,43.91-48.22,21.51-3,13.82-28.51,28.19-39.43,33-36,63.62,5.35,89.92,5.6,100-73.37-70.75-24.48,84.74-147.95,16-11.05,24.5,16.51,36.92,22.64,76.14-54.42,124.38-153,102.79-247.5-34-156.76-232.45-232.91-358.33-132.69-145.87,137.27-284.63,279.37-424.56,422.13-101.29,97.22-200.35,198.24-299.76,298.58-7.21,13.13-40.28,29.07-27,43.6,36.52,33.18,69.32,70.9,106.33,103.12,35.58,45.14,85.33,81.2,122.08,126.58,14.82,17,35.9,28.87,47.07,46.92C2100.94,1896.25,2102.13,1910.9,2109,1904.4Zm-697.21-285.33c-160.4-163.59-326-324.91-487.42-489.81-100.24-88.86-183.61-199.35-290.48-277C507,765.7,321.76,852.12,294,1000.43c-20.09,95.64,27.48,185.89,102.06,244.52,15.7-15.53,35.14-37.21,53.09-11.83,16.75,22.16,52.86,38,57.13,66.69-12.66,24.94-38.55,35.49-6.11,58.11,11.29,6,19.54,32.72,33.44,27.22,22.45-31.66,70.63-33.27,88.3,3.3,12.11,6.36,2.71,25.47,19.16,26.57,24.67,3.8,37.16,25.8,40.51,48.56,42.25.54,39.92,36.78,58,52.54,33-2.94,52.13,39.19,42.66,66.81-2.47,19.74-45.29,32.56-30.7,53.1,45,34.58,33.59,94.77-23.74,102.82-6.74,24.17-20,43.46-46.63,47.09-15.43,13.17-8.78,46.78-41.55,49.49-34.4,18.33-30,81.85-98.22,43.55-14.73-19.26-26-5.43-37.37,7.11-32.84,15.69-13.13,29.33,1.84,51.56,1.7,22.08-31,38.84-42.8,57.43-21.75,30.44-41.47,27.19-64.63-.28-55.27,40.56-99.29,102.15-106.81,171.72-31.18,194.52,220.17,334,367.5,204.32Q1039.76,1998.46,1411.75,1619.07ZM1993,2842.16c171.72,238,531.08,34.66,399.41-229.9-75.09-106.14-182.72-187.26-270.4-284.77-126-123.34-251.81-251.49-378.66-378.32-30.64-16.83-112.8-139-134.13-114.18-58.52,65.5-126.45,120.71-184.69,186.21-161.58,160.74-323.63,320.7-482.75,484.54-327.41,240.79,73.48,642,298.17,333-43.8-31.58-.16-54.11,24-79.36,10.14-13.07,28.65-36.75,46.47-24,24.82,42.48,52.94-1.76,76.56-24.86-35.53-28.29-36.78-89.38,14.57-98.63,18.18-10.61,17.19-44.93,44.6-48.87,29.17-3.82,22-54.64,57.87-53.76,22-3.5,6.57-47.55,50.71-54.57,31.35-3.15,53.33,16.49,71.51,39.8,21.84-16.65,36.45-41.14,68.21-36.36,47.75,14.82,29.14,45.09,51.63,55.76,20.51,6.23,38.63,20.77,39.69,43.81,41.46,22.68,33.9,6.26,57.54,57.51,41,3.6,58.7,51.25,34.92,82.23-17.59,16.8-12.67,14.46-.58,31.47,23.15,22.95,25.22,38.92,50.93,8.33,22.3-19.27,40.27,19.86,57.1,31.51C2014.09,2793.31,2032.42,2815.9,1993,2842.16Zm-377.88-1430C1870,1173.06,2114.2,911.66,2365.21,668.71c128.61-144.11,16.39-381.85-175.11-378.92-78.41-.17-152.94,48.45-196.47,110.3,55,25.71-2.1,62.24-26.09,88.4-20.07,32.93-43.68,12.91-62.5-8.31-19,15.41-37.64,31.55-54.6,48.92,30.66,24,38.28,71.55,3.69,93.45-51,8.05-12.24,28.82-53.66,51.42-40.54,2.32-23.52,55.09-70.07,57.61-7.79-.13-9.84,21.08-12.7,28-19.18,38.11-71.7,26.93-94.26-2.24-29.27-29.55-51.12,62.55-111.88,3.54-7.35-47.28-42.49-27-55-66.21-4.17-32.3-57-21.52-55.71-62.95-46.35-20.79-74.3-57.2-29.37-104.32-54-66.59-24.94-40.91-76.52-19.22-28.59-16.15-43.63-48.25-71.26-66.25-15.66-15.83,11.29-33.89,20.46-45.08-40.76-49.1-96.57-95.3-162.94-103.15C886.92,251.45,734.85,506.49,866.39,656.36,1109.69,914.79,1371,1154.35,1615.08,1412.13Zm114.56,222.27c-155.26-10.86-124.24,14.51-230.16,111.07-75.47,76.48-151.55,151.86-227.21,227.6C1157.81,2087.48,1045,2203,928.33,2315.25,788.17,2465,657.94,2617.79,429.41,2558.87c-214.14-44-343.46-304.82-252.21-502.35,19.6-65.76,75.74-112.25,120.68-162-31.7-26.2-52.62-65-87.93-84.26-10.3,11.65-20.91,20.24-31.51,30.58C-56.1,2055.68-3.08,2475.05,283,2621.19c148.58,86.19,340.47,80.32,487.09-8.91,143.07-100.49,251.31-242.51,380.35-359.88,127.14-129.49,255.23-255.05,382-383.75C1583.7,1806.85,1724.61,1709.24,1729.64,1634.4ZM2940.25,1346c95.31,84.32,62.72,119,160.44,7.54,108.4-133.39,142.39-329.63,73-487.26-87.16-246.46-388.15-371.54-625.07-278.89-99.83,37.12-174.84,111.8-247,187-80.65,77.83-159.29,160.58-238.43,238.26-96,93.61-189.32,190.81-285.19,285.79-19.58,29.14-148.43,126.89-130.68,145.23,58.89,42.54,54.92,106.23,118,22.73,160.37-156.55,311.13-314.16,473.2-470.3,93.46-91.35,178.39-195.79,284-273.08C2939.74,492.15,3304.79,1039.06,2940.25,1346ZM320,1916.94c-307,240.44-75.18,712.95,302.7,610.85,138.08-48.05,220.06-178.85,326-272,151.73-155.91,307.89-306,460.27-461.2,53.55-53.37,108.42-104,158.09-161.37-150.36-4.7-115.5-7.59-218.23,91.55-147.34,149.53-295,296-442.94,444C810.3,2253.59,732.8,2370,616.57,2430.51,437.31,2509.3,228.69,2346,264.32,2150.28,290.35,1981.52,442,2005.25,320,1916.94Zm1488.49-450c-15.61,17.29-80,60.51-64.71,80.91,3,13.18,12.58,23.74,14.71,37-2.48,20.54,13,24.45,30.68,19.5C2056.81,1366,2299.77,1085.65,2565.57,842c291.29-198.59,572.42,203.15,299.1,425.23,21,14.64,45.25,74.19,71.79,41.13,32.51-35.41,69.72-69.29,87.11-113.57,74.5-131.92,34.16-310-76.4-412-105.1-87.74-252.64-114.45-376.73-52.57-107.05,56.47-175.86,158.89-265.13,236.41C2143.72,1136,1971.13,1297.07,1808.51,1467ZM555.36,514.49c-1.1,32,76.85,14.46,102,34.07,23.3,9,4.86-35.47,10.93-47.84,4.21-56.55,17.91-112.23,46-160.4,104-202.49,401.2-257.08,567.88-100.74,27.85,8.77,52.06,80.52,78,44.95,51.66-63.12,102.62-58.21,16.35-124.58C1070.15-129.09,561.08,94.54,555.36,514.49ZM1808.9,3028.2c280.35,334.28,826.83,177.68,870.25-260.73,1.35-16.83,9.87-49.19-4.66-57.92-28.45-2.23-56.68-9.37-83.92-13.69-35.08-23.8-14.86,70.22-26.47,89.47-33.15,227-292.37,364.5-501.83,281.25C1859.84,2980.85,1946.32,2868,1808.9,3028.2ZM1264.64,375.13c84.61-66.76,55.3-53.54-6.4-119.92-77.32-62.73-183.24-91.53-282-71.38C817.42,207.39,698.4,361.5,694.88,519.77c3.21,13.13-1.76,35.42,11.12,42.62,33.64,13.17,63.74,31.94,95.4,48.27-29.69-108.45,1.24-263.48,123-319.09C1040.94,226.45,1187,272.71,1264.64,375.13Zm1167,2250.62c74.77,180-89.65,384.46-280.53,349-162.59-19-148.84-180.9-233.23-53.49,165.46,220.86,525.44,169.56,606.68-98.48,14.74-45.14,23.65-98.74,11.5-144.48C2499,2664.28,2468,2641.53,2431.6,2625.75ZM1601.12,1603.91c-192.36-199.18-398.45-398.25-596.2-599.12C795.69,802.7,631.35,547.21,309.22,739.06,101.8,874,96.3,1206.3,298.22,1345.41c46.78-28.08-67.78-72.69-97.05-173.28-72.06-172.45,24.65-388.43,202-448.88C549,667.56,707.29,728.56,804.83,844.34c73,76,147.45,147.9,222.17,223.87,126,126.35,255.91,253.87,379.75,379.06,38.79,43.27,83.25,79.48,121.85,122.35C1548.74,1592.35,1567.22,1613.43,1601.12,1603.91ZM2941,1893.23c-56.51,25.61,92.2,85.43,111.48,223,53.35,211.22-122.83,426.41-339.2,421-94.58-7.74-192.77-43.33-254.74-119.84-75.41-72.88-148.18-147-222-220.51-113-111.2-226.74-232-343.07-342.17-32.51-32.74-64.28-67.12-96.35-98.67-26.06-18.17-51-78.5-76.4-33.16,145.67,141.89,291.8,289.84,435.53,434.48,62.95,62.14,124.89,125.48,187.91,187.63,68.34,64,126.37,140.73,210.64,184.14C2967.74,2711.14,3291.62,2174.65,2941,1893.23Zm-158-9.62c46-54.09,109.65-98.33,148.13-156.1-23.48-46.94-48.89-93-73.64-139.33-16.28-22.1-118.21-139.5-103.9-52.08,115.59,84.18-17.25,101.55,49.43,190.33,7.87,8.66,7.3,17.82-.48,26.36-21.86,22.44-44.38,44.19-64.13,67.86C2718.4,1831.84,2771.88,1872.66,2783.07,1883.61ZM457.56,1354.16c-34.68,37.41-71.17,70.8-105.24,108.57-11.28,18.15-47.8,29.53-45.14,51.07,25.62,47,52.28,93.24,76.26,140.77,25.07,26.82,53.31,68.91,87.13,82,15.57-1.66,24-21.16,14.14-32.89-56.88-70.09-63.64-35.18-32.1-126.81,13.11-38.52-41.4-74.14-12.16-93.95C497.78,1410,537.82,1432.67,457.56,1354.16ZM1884.68,460.58c-34.15-37.41-70-71.52-106.57-106.62-14.09-10.5-39.86-56-56.62-44.69-31.26,18.56-279.26,140.27-202.4,181.58,26.78-.86,45.92-40.29,69.1-55.37,30.23-12.56,56,22.79,87.09,18.92,32.64,5,65.58-43.56,81.4-14.58C1830.9,504.55,1802.17,532.34,1884.68,460.58Zm-149.44,2302.6c-34.13-46.6-61.73,43.08-96.22,44.9-130.33-61.46-100.06,18.9-152.43-5.8-27.66-20.44-46.41-49.17-74-68.85-10.53,1.12-66,43.28-52.18,53.41,45.41,47.86,96.67,92.52,141.53,142.14,36.32,2.84,77.46-35.38,110.12-53.1C1649.21,2863.86,1731.86,2801.25,1735.24,2763.18Zm800-2203.6c72.1-1.08,4.59-182.13-17.57-218.74-104.87-203.83-400.41-255.4-569-102.3-10.54,22.2-72.45,47.66-45.15,68.77,5.86,6.51,8.07,6.38,16,.41,26.32-25.37,52.91-50.1,81.62-72.65C2242.46,74.51,2562.79,269.14,2535.28,559.58ZM676.61,2687.05c-38.73,319.5,354.72,525,600.38,323.52,20.37-17.17,104.65-87.8,42.46-78.68-23,21.81-43.5,46.57-71,63-152.44,122.73-403.35,69.31-499.65-103C674.08,2779.72,734.26,2644.26,676.61,2687.05Zm2305-961.33c-56,53.66-109.62,108.89-164.58,163.9-31.73,37.57-75.09,41.58-21,82.62,19.5,28.35,41.1-21.91,58.71-34.83,25.28-23.87,49.23-50.2,74.53-73.25C2960.71,1815.83,3068.83,1773.1,2981.64,1725.72ZM1766.36,3025.13c50.53-49.6,99.2-97.66,148.72-147.85,39.44-48.47,99.7-58,26.56-109.55-57.28,51.14-107.33,107.25-163.74,160.45C1736.65,2976,1701,2974.34,1766.36,3025.13Zm215.18-2596c-54.64-58.12-112.06-117.32-172.63-169.95-45.76-51.33-35.4-54.73-83.26-3,52.4,54.06,105.81,111.67,161.17,160.89C1930.52,460.86,1935.54,495.63,1981.54,429.17Zm-469.7,2554.91c-60.13-71.7-132.12-130.93-196.43-198.81-20.49-38.48-39.6,5.79-59.84,22.73,33.06,38.14,71.5,69.2,103.59,108.15,37,31.41,71.35,66,103.85,101.23C1480.41,3030.24,1498.78,2994.52,1511.84,2984.08ZM427.69,1983.58c75.72-52.55,23-55.5-19.27-106.68-48.48-47.8-97.95-94.85-143.09-145.42-15.41-14.41-27.88,17.58-40.06,24.09-15,9.11-5.11,21.69,5.4,28.83C295.25,1851.71,364.18,1914.79,427.69,1983.58ZM1347.47,341.07c-32,22-62.18,58.85-91.47,88.06-4.4,8.79,10.94,6.65,13.13,13.86,4.42,5.15,6.49,12.61,14.86,13.86,4.16,3.52,8.37,15.84,15.93,12.59,40.23-41,82.21-80.11,121.76-120.87,22.86-21.45,42.49-45.07,66.89-65.2,38.8-31.47,12.66-41.76-15.72-65.77C1427.84,253.32,1383.65,298.81,1347.47,341.07Zm1462.15,916.61c-68.43,53.92-35.33,40.07,6.21,92.89,57.56,52.24,107.65,108.39,165.48,162,61.35-42.2,41.85-40.35-1.51-83.89C2924.31,1370.12,2867.65,1313.76,2809.62,1257.68ZM214.72,1474.13c46.44,58.92,56.09,24.1,97.61-16.79,44.66-43,86.81-88.57,132.33-130.56,40.07-30.94,17.64-47-17-69.15C355.22,1328.21,282.28,1400.44,214.72,1474.13Zm396.44,333.73c86.9,11.11-19.1-117.52-37.24-45.46C578.5,1780.55,602.32,1790.78,611.16,1807.86Zm869.9-1133.31c7.86,71.24,114.74-39.81,47.72-48.78-17.68,5-21.07,25.43-37.2,33.21C1484.72,661.67,1481.16,666.76,1481.06,674.55Zm202.7,1814.39c-19.71,1.87-31.78,26.88-46.9,38.89C1624.34,2607,1759.53,2502.57,1683.76,2488.94ZM1376,569.08c8.6,55.83,68.49,4.27,72.21-24.86C1434.08,494,1392.41,550,1376,569.08Zm-625.7,1119c-2.39-19.5-20.84-29-31.57-43.83-18.45-23.9-51.23,4.08-34.19,26C702.55,1688.14,734.84,1732,750.31,1688.12ZM570.25,1862.17c13.43-.88,30.55-15.33,23.44-28-14.59-15.48-30-47.24-54.53-43.27C500.67,1809.7,548.59,1850.24,570.25,1862.17Zm2067.11-359.94c77.92-5.31-47.15-120.82-44.21-45.26C2605.05,1473.94,2619.34,1492.23,2637.36,1502.23Zm-1034-801c-15.26-69.52-113.84,52.4-45.48,49.62C1574.82,737.8,1597.57,722.38,1603.35,701.27Zm-149.84-55.41c20-6.07,49.27-35.07,46.31-56.3C1474,541.53,1392.52,642.71,1453.51,645.86Zm406.13,2019c-9.15-55.14-99.43,26.1-58,47.86C1824.83,2721.89,1856.13,2686.38,1859.64,2664.81Zm650.81-1132.64c-24.52-1.68-30.92,33.78-8.9,42.88,11.52,19.6,45.43,42.94,56.29,10.9C2559.66,1570.6,2525.16,1531.54,2510.45,1532.17Zm203.71-102.46c-4.1-25.3-48.82-76-68.11-37.29C2634.09,1418.07,2708,1479.17,2714.16,1429.71Zm-957,1234c27.66-3,84.19-67.08,25.5-69.56C1759.62,2598.74,1714.05,2655.92,1757.16,2663.75Zm-44.69-54.23c17.58-2.56,30.94-26,41.89-40C1761.66,2488.62,1632.92,2612.77,1712.47,2609.52Zm831.45-1096.89c15.44,15.35,33.33,47.53,57.79,36.86C2643.28,1517.68,2529,1444.1,2543.92,1512.63ZM627.42,1708.42c4.75,17,36.93,54.7,56.51,46.51C729.76,1738,633.64,1649.39,627.42,1708.42Zm1247.76,189.14c3.33-1.11-.29-5.16-2.32-6.21C1870.36,1893,1874.4,1895.53,1875.18,1897.56ZM1121,2093.36c-2.45-1.76-3.33-3.11-5.12-.21C1117.87,2095.2,1118.32,2096,1121,2093.36Z"/></g></g></svg>