<svg xmlns="http://www.w3.org/2000/svg" viewBox="0 0 372.43 373.71"><defs><style>.cls-1{fill:#1f1c1c;}</style></defs><g id="Layer_2" data-name="Layer 2"><g id="Layer_1-2" data-name="Layer 1"><path class="cls-1" d="M257.75,179.83c-73.47-3.48-64.56,17.18-64.6-45.17,0-14.13-.1-28.26-.09-42.39-.37-26.64-2.88-56.81,20.07-75.48,34.55-34.62,97.23-12.2,103.39,35.91.38,2.1.89,3.09,3.28,3.49,65.63,9.59,71,104.3,6.94,121.48-22.56,4.73-46.06,1.12-69,2.19Zm9.68-13.89c31.65-.55,71.81,7.2,86.71-27.93,26.32-59.33-62.79-98.68-88.53-38.28C259.86,113.38,264.76,130,253,141c-7,9.14-35,20.28-32.31-.21,0-26-.15-52.07-.11-78.11,0-11.74,4.87-21.36,14.26-28.25,20.63-15.14,50.05-3.09,54.12,21.8.32,2,1.05,2.56,3,2,3.18-2.09,12.09,0,10.6-5.46-3.63-15.44-12.28-27.17-26.64-33.92C239,1.1,202,33.26,207,72.27c.17,30,.1,60.06,0,90.09,0,3,.89,3.62,3.58,3.57,5.22-.12,10.45.08,15.68.1,26.88.83,50.31-21.9,49.59-48.92C283.42,53,374,90.9,335.85,141c-14.54,17.16-38.38,8.75-57.12,11.92C276,157.69,271.63,161.11,267.43,165.94Zm-33-67.69h0c0,11.84,0,23.68,0,35.53,0,3.08,1.26,3.9,3.76,2.05,20.21-13.35-.24-44.54,37.52-69.59.6-.39,1.11-.63.9-1.67-.45-14.29-14.6-28.15-29.13-21.66-8.53,4.33-13.63,10.58-13.2,20.92C234.79,75.28,234.41,86.77,234.41,98.25Zm64.53,40.5c37.58,5.1,43.3-37,13.07-41.71-10.5-.64-18.48,4.44-21.45,14.64-2.35,8.08-1.12,16.83-4,24.91C285.33,140.82,296.34,137.93,298.94,138.75Z"/><path class="cls-1" d="M114.66,179.69c-33.61-1.77-74.32,8.89-98.84-20.58C-17.25,125.39,4.8,62,51.66,56.6c3.64.21,3.74-1.54,4.24-4.29,6-41.87,56.14-66.2,92.4-43.81,46.42,26.23,27.17,87.15,31.09,130.93.45,55.92,6.83,37.3-64.73,40.45ZM110.55,166v0c15.08,0,30.18.18,45.26-.06,11.6-.17,9.52,1.81,9.69-9.57.15-9.93.72-20-3.63-29.39-19.21-43.18-50.35-17.73-72.1-43.53-35.2-57.79,75-91.52,62,6.28-.28,6.66,8,8.32,11.09,13.46,1.16,2.16,3.35,1.6,2.64-1,0-13.83.64-27.69-.05-41.48-1.74-54.82-79-62.82-93.91-13.52-11.43,29.71,13.46,64.05,45,63.32,19,0,34.73,16.16,35.2,33,.15,5.46-2.48,8.66-8,8.67-26.81.08-53.62.07-80.43.16-42.33.72-49.06-61-7.18-68.61,2-.33,2.47-1,1.86-3-1.67-2.72-.56-11-4.44-10.78-21.9,3.25-38.3,22.37-39.65,44.35-1,16.87,5.54,30.62,18,41.21C53.72,173,84.61,163.82,110.55,166Zm-15.18-27.2c14.17,0,26.14-.09,38.1.06,2.95,0,3.54-1.32,2.27-3.29-12.51-20.82-39.57-1.79-64.29-32-5.63-8.44-14.76-9-22.06-2.15-14.54,9.53-8.17,35.76,10.07,36.87C72.15,139.32,84.87,138.48,95.37,138.79ZM138,72.88c1.3-11.87-1.62-27-13.29-30.19-10.32-3.56-21.37.43-27,11.47s4.51,28,15.94,28.72c7.24.47,14.63.62,21.47,3.33C140.31,89.33,137.21,75.58,138,72.88Z"/><path class="cls-1" d="M114.74,193.6c74.94,3.73,64.22-18.74,64.48,50.39-1.43,28.81,3.76,58.48-3,86.71-9.56,27.67-35.85,45.64-65.8,42.09-28.2-3-49.68-23.68-54.39-51.53-.27-3-1.39-3.77-4-4C.63,310.88-18.69,239.11,22.41,207.64c25.24-22,61.61-11.69,92.33-14Zm-10.19,14.45c-13.16-2-27.52,0-41.11-.56-7.94,0-15.61,1.3-22.76,5-59.68,31.35-9.91,119.69,48.45,83,35-21.43,5.38-65.17,51.21-74.17,8.63-1.06,11.54,1.46,11.54,10.12,0,25.3-.22,50.61.11,75.91.23,17.88-9.17,32.11-25.51,36.93-19.75,5.73-39.84-7.88-43.26-27-.46-2.58-1.76-2.69-3.62-2.15-2.51.72-4.92,1.87-7.56,2-2.32.14-2.52,1.3-2.14,3.27a45.89,45.89,0,0,0,13.49,24.78c26.61,28.8,79.39,9.66,81.7-29.23,1.08-16.9.3-33.86.4-50.79.1-17.94,0-35.89.16-53.84.7-7.54-11.22-2.68-15.85-4.17-27.33-2.23-53.46,19.51-53.19,47.56.91,27.83-32,46.73-55.3,28.41C14,263.2,30.48,219.94,62.49,221.15c9.23-.16,18.46-.06,27.69-.12,1.32,0,2.88.39,3.8-1C97,215.59,100.73,211.83,104.55,208.05ZM138,274.84H138c0-11.47,0-22.94-.05-34.41,0-1.21,1-3.09-.78-3.58-8.1,1-13.92,12.43-13.25,20.38.37,5-.94,9.93-2.18,14.69a59.19,59.19,0,0,1-23.3,33.86c-5.94,5.12.56,16.52,5.08,21,8,7.46,21.89,6.58,29.13-1.53C142.58,312.84,136.43,290.27,138,274.84Zm-66.32-40h0c-6.38.25-13.65-1-19.3,2.32-14.34,6.75-14.4,30.14-.77,37.26,15.82,7.34,31.07-3.5,31.09-19.59a49.63,49.63,0,0,1,3-17.17C88.38,232.47,74.57,235.74,71.72,234.87Z"/><path class="cls-1" d="M257.85,193.78c29.28,2.23,63.09-7.33,88.38,11.24,26.42,18.7,35.06,58.67,15.7,85.48-9.92,14.83-24,23.6-41.47,26.72-2.4.43-3.52,1.13-4,3.77-3.79,21.71-15.8,37.64-35.63,46.69-41.26,20.79-91.59-15.28-87.8-60.9.34-22.46,0-44.92,0-67.38.57-63.08-9.76-42.18,64.83-45.69Zm3.37,13.49v.22c-17,0-33.91,0-50.86-.05-2.84,0-3.6.93-3.47,3.74-3.43,33.8,11.12,64.7,48.66,65.26,57,4.46,35.86,88.44-16.24,65.34-23.26-10.49-18.56-37.4-18.68-58.49-.19-6.1-7.8-8.51-11.19-13-.59-.52-.59-1.92-1.75-1.52-1.83,1.5-.34,11.16-.78,14.19-2.39,33.91,2,69.62,41.92,76.06,67.31,6.24,74.46-94.12,5.95-96.25-25.09,2.62-47.22-40.13-26.07-41.42,27.3.14,54.59-.38,81.88-.16,25.62-.35,42.77,28.7,29.67,50.81-4,7.65-9.51,12.35-16.86,15.81-2.93,1.38-7.7.76-8.7,3.24s1.2,6.38,1.61,9.69c.3,2.44,1.35,2.86,3.48,2.4,24.9-4.73,42.32-29.77,38.32-54.59C350.06,199.69,298.55,207.08,261.22,207.27ZM275,234.87v-.1c-11.58,0-23.17,0-34.76,0-1.31,0-3.19-.6-3.81.66-.74,1.48.43,3.15,1.4,4.38,7.79,12.54,22.83,7.34,34.71,11.74a64.61,64.61,0,0,1,33.27,23.47c.89,1.18,1.65,1.93,3.28,1.91,13.7-.11,24.94-11.18,21.41-27C323.31,227.55,293,236.68,275,234.87Zm-40.54,66.06c-1.48,11.78,2.19,28.57,15.3,30.54,10.65,1,20.86-.41,25.27-14.83,3.67-12-3.76-24.27-16-25.94C231.87,289.53,234.21,279.22,234.43,300.93Z"/></g></g></svg>