<svg xmlns="http://www.w3.org/2000/svg" viewBox="0 0 799.31 741.94"><g id="Layer_2" data-name="Layer 2"><g id="Layer_1-2" data-name="Layer 1"><path d="M493.29,741.9c-1.54-39.52,13.78-84.86,12.94-127.12,5.81-39.54-9.81-57.58-48.12-66.19-25.57,26,12.35,23.08,13,51.71,4.16,31.47-2.52,68,13.49,96.34,5.4,5.7,5.87,9,.74,14.56-2.12,12.78,1.2,37.7-20.67,26.6-3.64-8.1,19.71-10.44,9.47-23.06-7.79-18-5-38.73-11.08-57.44-24.65-94.26-52.35-72.86-15-178,2-8.72-7.06.82-11,1.48-28,6.11,25.71-13.21,1.1-31.6-9.09-19.14-73.75-42.76-55.59-60.2,35.9-63.05,73.48-41.69,12.84,5.59,48.65,17.39,32.91,82.28,121.45,60,35.65-5.12,12.9,80.23,2.47,104.42-3.35,16.19,20.25,27.8,10.37,47-6.94,30.59-24.63,61.22-20.87,93C508.05,714.34,516.72,743.11,493.29,741.9Z"/><path d="M799.31,78.77c-51.49,2.83-31.86,45.37-27,82.55.1,22.37-49.79,25.2-60,13.06-1.29-27.24,28.2-3.24,44-10.67C740.63,141.37,777,83.9,744.46,80.76c-5.63-1.47-6.71-4.09-4.27-9.41,9.38-13.07,8.77-15,4.61-28.35,10.06-18.23,15.45-20.34,40.65-18.23-7.54,12.58,6.48,7.62,8.24,18.85C784,59.52,797.23,62.42,799.31,78.77Zm-8.08-33c-.41-9.1-14.91-9-13.69-.9C781,53,786.1,52.24,791.23,45.81Zm-36.65,6c6.59-2.88,8.87-11.79-.25-13.18C746.82,41.4,746.53,49.86,754.58,51.85Z"/><path d="M117,483.86C87.46,476.42,92.88,504.29,91.33,525c-6.11,15.88,25,61.07-6.64,51.42-10.85-22-1.5-52.7-5.39-77.56,5.07-29-29.86-5-38.36-19.49C27.71,413,37.36,346.62,55,281.77c-15.79-7.73-31.2-18.09-42.16-35.1,20.61-3.5,42.32-17.25,59.33-.32,31.09,8.8,38-22.85,76.42,7.67,12.43,2.21,23.77-11.33,35.39-15.58,43,10.72,28.8,32.69-6,45.48,23.52,62.76,18.18,130.28,4.33,194.55-51.5,18.11-48.61-17.44-63,60.55-15,30.23,7.52,21.31,6.2,34.15-13.13,9-23.44-5.74-19.67-18.44.81-8-10.33-14.75-1.82-20.61C116.53,520.17,113.18,501.32,117,483.86Z"/><path d="M255.27,422c-34,19.83,1.68-5-4.86-21.15,2.51-12.34,3.87-21.26-6.13-28.65,7.36-23.41-35.54-31.29-24.11-53,18.08-27.61,24.05-67.54,58.25-77.88,7.95,9.4,5.83,30.47,16,40.94,28.68,11.39,23.75-68.68,52.54-21.13,6.38,23.5,37.74,51.24,30.32,73.21-19.74,11.55-21.14,30.22-30.58,45.36-7.66,7.07,3.44,16.4-.22,25.35-2.79,11.66,8.53,16.8,13.62,25.16C328.57,415.79,347,443.82,340,469.64c-10.58,26.3-.47,50.62-4.22,76.8-12,37.78-23.83,73.76-19.57,113.7.54,10.75-19.69,14.51-16.11,1.34,13.09-40.39,4.31-83.82,13-125.24,6-19.18-6.68-19.35-21.93-18.48-18.37-4.33,1.39,124.93,5.27,141.62,1.55,4.87.05,9.59-3.32,10.46-25-2.52-4.78-43-13.49-60C256.36,548.7,258.77,486.51,255.27,422Zm-22.86-97.06c11.22,20.6,40.3,35.3,28.47,60.6C278.14,337.74,283.48,361.4,324,370c8.32,1.81,7,18.14,13.24,19.52-.51-10.69-13.1-23.59,1.29-29.81,33.87-27.68,22.24-51.79,0-66.44-17,19.34-25.67,47.53-12.86,73.76-32.2-4-54.93-21.12-52.51-55C255.38,281.8,249.57,303.6,232.41,324.91Zm66.52,159.3c-4.48,4.24-6.13,7.88-.63,10.33C305.06,493.13,302.65,489.07,298.93,484.21Zm-25.85-5.38c-4.84-5-6-4.18-9.8,0C267.12,484.19,268,484.25,273.08,478.83ZM288.22,485c-4.64-4-8.18-5.59-9.67.32C280.73,491.3,283.71,490,288.22,485Zm31,13.29c-4.47-4.19-7.94-6-9.69-.14C311.49,504.19,314.48,503.05,319.25,498.27Zm17.28-215.51c-2-5-4.07-9.93-6.45-15.76C328.22,270.92,328.22,270.92,336.53,282.76Zm-66.08-13.68c-4.68-1.17-6.72,2.27-7.57,12C265.56,276.83,267.89,273.14,270.45,269.08Z"/><path d="M74.89,163.89c-15.49,21.05-41,28.57-59,47.06,25.87,2.56,75.91,16.61,76.49-20.91,6.43-18.15-8.78-37.76-4.29-54.13-3.59,12.74-7.47,18.55-21.17,12.9,1.36-15.93,20.26-55.95,45-53,6-17.22-.27-33.51-3.77-50.76C83.46,50.72,68.23,5.31,97.66,0,163,14,187.55,36.6,135.33,88c-1.28,6.85-.29,8,6.44,9.9,23.32,6.33,22.42,37.43,37,53.76-23,15-22.25-17.46-32.48,24.49-6.68,52.51,33.61,36.88,69.25,39.69,18.8,1.46-89.7-66.63-24.32-45.72,14.42,19.45,55.22,39.1,43.85,66.4-16,32.83-28.79,1.15-50.67-2.11-33.15,25.83-40,8.83-72.6.77-19.57,10.06-35,14.12-53.11-.76-15.5-4.67-36.67,14.23-49.63,5.42-24.82-25,7.39-40.51,23-58C44.81,171.15,56.66,154.09,74.89,163.89Z"/><path d="M701.11,277.75C736,296,801.73,283.62,757.66,339.66c-12.16,18-85.1,125.61-89.69,104.24-3.45-7.09,4.61-11,8.8-15.25,3-5.31,2.29-12.74,10.21-11.54C705,415.91,705.86,391,714.8,378.8,692.71,381.14,664.51,454,651.37,448c-15.44-31.63-3.35,78.56,3.8,99.94-20.44,31.16-10-43.61-17.44-54.09-15.93-49.93-9.61-98.06-24.09-147.26C605.24,281.8,653.13,333.34,701.11,277.75Z"/><path d="M607.94,232.38c13.25,3.8-9.51,20.76-19.23,17.56-20.49,52.73,39.18,115-64,94.54-5.19-34,33.58-6.06,51.76-14.85-18.17-95.87,34.9-73.25-78.81-59.75,14.53,10,13.27,25.5-.26,36-7,5-7.16,19.25-1.74,21.09-6.06,6.81-18.89,47.51-27,27.91,1.35-26.72-14.61-66.41,12.27-83.27,1.17-4.35-14.57-.27-19.28-1.81-41-3.69-92.82-8.32-118-45.3,66.46,3,226.48-20,264.51,8C589.36,243.57,601.89,250.63,607.94,232.38Z"/><path d="M678.48,159c17.31-7.11,31.29-5.53,23.13,16.82-5.81-1-21.18.93-13.07,9.54,21.73,11.36,11.77,18.87,8.25,36.2,5.45,31.74-3.31,69.19-42.12,47-7.84-27.55-20.35-59.12-33-87.73-3.76-9.44-17-2.84-24.88-3.56-8.19-20.78,5.72-22.33,24-22.52C653.73,149.66,662.47,246.44,678.48,159Z"/><path d="M514.9,321.82c-1.72,14.28-10.86,19.76-14.8,31.94-1.65,10.64,9.41,19.49,3.21,29.71C478.25,397.38,489,433,456.81,440.11c-11.63,6.29-27.71-80.64-14.72-83.57,20-20.06-7.66-1.36-12.9-24,51.4-50.2,20.67,56.33,53.06,25.2C492.75,345.79,495,318.56,514.9,321.82Z"/><path d="M583.89,179.41c-75.13,13.79-34.4-50-43.17-92.69-24.34-3.24-54.86-3.84-28-31.86-19.27-12.54,10.3-18.2,1.9-31.38,11.18,1.88,21,.91,32.07,1.32-6.4,13,7.44,7.68,9.06,19.23-6.11,13.1-3.37,16.59,4.52,29.3,5.25,11.83-18.32,4-11.79,19.15,14.29,25.41-14,84.62,27.12,70.36C584.08,161.43,581.44,173.7,583.89,179.41ZM545.78,38.78c-9.85-.41-6.08,10.24.14,12.73C552.71,52.64,555.24,37.58,545.78,38.78ZM516.67,51.9c6.29-3,8.87-11.76-.34-13.25C508.77,41.41,508.47,49.85,516.67,51.9Z"/><path d="M310.39,217.61c-.23,9.14-2.52,20.35,12.24,23.56-8.08,31.41-27.5,60.71-36.27,10.77-5.42-38.06,32.11-4.59-16.83-55.17-26.38-14.5,54.25-42.33,47.78-5C316.35,201.76,323.66,213.63,310.39,217.61Z"/><path d="M664.32,128.25c-2,12.72,2.76,21.75,9.85,31.26-2.88,8.1-1,39.89-15.35,28.24-45.63-56.29,21-22.11-32.87-82.2,2.08-15.3,18.89-26.82,34.61-24.67C669.59,88.91,681.78,125.48,664.32,128.25Z"/><path d="M340.6,213c81,6.56,216.58-12.18,270.8,5.83C524.52,213,418.25,229.85,340.6,213Z"/><path d="M618,306.81c21.77-57.71,35.68-21.68,75.31-32.42C696.16,290.42,643.2,311.9,618,306.81Z"/><path d="M318,158.41c-26.72-5.33-50,7.78-73.1,16.18-9.33-7.32,8.44-17.27,13.34-22.9C277.64,132.45,307.25,134.14,318,158.41Z"/><path d="M454.57,444.35c29.67-13.54,33.25-31.84,63.57-2.92C524.1,465.23,467.77,454.7,454.57,444.35Z"/><path d="M655.45,49.93c18.76,37.44-20.89,20.61-32.83,50.88C600.42,79.37,634.53,53.38,655.45,49.93Z"/><path d="M257.21,185.93c-27.21-14.87,72.71-40.52,60.2-14.25C294.41,165.7,275.34,174.38,257.21,185.93Z"/><path d="M519.31,343.52c-12,.92-4-22.75,5.57-20.06C522.9,330.6,521.11,337.05,519.31,343.52Z"/><path d="M422.61,340.3c5.28-11.32,16,10.5,10.47,18.28Z"/><path d="M590.35,159.71c-.53,6.42,7.69,20.87-3.31,19.12C587.22,171.35,579.09,160.24,590.35,159.71Z"/><path d="M79.29,155.12c2.62,10.92-31.1-1.54-12.74-2.81C70.5,153.74,74.79,154.17,79.29,155.12Z"/><path d="M163.76,161.52l15.65-6.05C181.8,157.52,166.12,174.22,163.76,161.52Z"/><path d="M708.29,177.57c-4.91-4.41-2.64-16.17,2.35-19.63C712.43,164.49,709.2,169.85,708.29,177.57Z"/></g></g></svg>