<svg xmlns="http://www.w3.org/2000/svg" viewBox="0 0 355.14 350.13"><g id="Layer_2" data-name="Layer 2"><g id="Layer_1-2" data-name="Layer 1"><path d="M4.92,349.19c-3.29-.31-7.69-3.59-2.6-5.75,3-.65,5.76-1.94,8.69-2.75,5.78-1.16,11.87.06,17.63-1.46,7.74-.82,8.68-10.92,16.14-12,12.74,31,76.93,3.22,102.74,2.05,15.89-2.32,32.4-3.63,48,.9,10.61,3,21.64,6.66,32.78,5.52,2.51-.52,3.84-2.77,4.64-5,1.58-2.5,2.6-8.31,5.5-8.47a118.19,118.19,0,0,1,13.25,7.27c5.87,3.47-.14,15.47-3.07,19.65Z"/><path d="M263.36,349.19c-4.12-1.48-4-5.78-2.51-9.21,25.84.21,53.08-1,78.37.41C349.53,357.73,274.43,346,263.36,349.19Z"/><path d="M355.05,198.37c-3.45,23.92-14.32,56.9-31.21,69.87,9.72-23.56,18.27-47.67,23.57-72.63.5-2.08.3-4.64,3.2-3.87C354.21,191.85,355.51,195.25,355.05,198.37Z"/><path d="M88.21,91.83c-2.34,1.76-4.44,5.69-8.1,4.1-5.49-2.28-9.52-7-13.91-10.83-3.68-3.44-7.33-6.93-11.05-10.34-2.77-2.25-.91-5.4-.31-8.17a2.34,2.34,0,0,0-1-2.46c-3.72-3.21-7.76-7.09-9-12C44.47,49.43,48,47.79,47.65,45c-2.8-1.18-3.9-4.12-6.18-5.94-2.31-2.38-6.7-3.58-7.16-7.2-.07-4.94-4.48-10.64-.1-14.87,6-3.93,1.61-2.87,2.95-8.22.53-4.48,5.22-4.55,8.72-5.42a30.17,30.17,0,0,1,5.87-1.22C55,1.78,59.2.7,60.57,4.65c3,3,11.49,9.68,14.83,4.09,7.61-7,10.62,10.88,18,8.18,2.42-1.52,5.44-.87,7.76.53a101.77,101.77,0,0,1,25.31,24.41c.57.9-.55,1.68-.94,2.42a29.1,29.1,0,0,1,4.51,9.61c1.38,6.7-3.28,11.19,4.75,15.56,5,3.54-2,4.79-1.75,7.34,1.21,1.87,5.11,1.62,3.11,4.78-1.67,1.63,1.14,1.53,1.46,3.24.54,4.79-3.38-.46-2.23,8.28-.26,9.1-16.23,2.76-22,6.27-4.75,2.79-24,23.56-15.24,27.29,3.51,0,7.17-1.13,10.75,0,17.43,2.79,63.68,10.27,77.76,1.75,12.18-32.45,21.22-66,29.65-99.57a15.1,15.1,0,0,1,10.2-12.35C237.34,11.46,248,6.07,258.33,0c1.91,8.84-27.17,28.11-32.48,38.22C213.57,54,214.41,75,210.63,93.73c-3.46,16.43-4.59,35.25-15.49,48.73-10.52,6.4-24.45,4-36.34,5.52-7.15.36-14.3.62-21.44,1-.67-.12-1,.36-.33.65,13.21,9.25,26.56,19.5,42.28,23.91,4.08-.31,7.11-5.36,10.65-7.48,25.53-21,48.11-45.37,72.21-67.87,8.4-3.8,18.8.45,27.83.08,5.77.32,11.54.42,17.31.49,3.6.06-2.91,4.34-4.13,4.54-15.75,5.59-33.11,6.46-47.93,14.67-22.24,14.12-34.13,39.7-53.49,57.25-6.64,5.35-15.1,17-24.27,15.69-18.05-7.53-34.94-18.14-52.61-26.71-5.71-2.29-34-19-33.87-6.25,1.2,8.32,9,14.52,14.49,20.39,1.25,2,6.38,4,5.37,6.1-5.05,7.08-12.94,14.59-22.23,13.81-24.43-.9,6.76,51.64,4.79,61.74-59.24,48.17-31.7,37-35.53-11.29-7.09-40-14.2-60-.07-101C64.26,127.65,80.43,110.15,88.21,91.83ZM92,98.56c-.65,11.27,7.89,19.54,10.4,3.72.73-3.91-.31-17.38-2.73-5.89-2.82,5.55-5.69-1.08-5.81-4.33C91.88,90.42,92.1,97.42,92,98.56Zm5.2-11.79a1.87,1.87,0,1,0,.06,3.72A1.87,1.87,0,1,0,97.2,86.77Z"/><path d="M234.81,319.46c-3.1,3.08-4.72,12-7.88,12.82-16.07.77-30.65-7.61-46.52-8.46-32.94-2-64.69,9.42-97.06,13.47-31.06,4.45-43.34-7.9-31.26-38.12,13.16-11.9,30.37-24.26,43-34.95,2.67,22.28,27,21.06,44.19,22.17C172.54,290.9,206.16,302,234.81,319.46Z"/><path d="M321.81,274.15c2.32,9.15,5,18.26,7.12,27.46-18.33-.95-41.9,2.19-57.76-1.07C280.36,261.76,274.72,276.63,321.81,274.15Z"/><path d="M247.86,189.15c-.55-4.94,3-9.84,8-10,30.54,1.22,62.36-2.51,92.31,1.42C374.51,197.91,257.89,186.05,247.86,189.15Z"/><path d="M263.12,331.15c1.61-4.3,2.16-11.79,4.25-14.32.86,2.75,3.12,6.18,6.37,4.27,3.88-2.76,7.64-5.71,11.51-8.48,2.65-.59,4.17,6,5.89,7.76,6,7,12.62-11.32,18-10,10.15,15.78,9.17,12.46,22,1.64,1.52-.18,1.75,5.92,2.58,7.44,1,3.8,2,7.67,3,11.47C312.42,331.62,287.61,331,263.12,331.15Zm66.84-13c-1.73.08-2,2.88-.09,2.86A1.43,1.43,0,0,0,330,318.1Zm-23.45,2a1.42,1.42,0,1,0-.1-2.83C304.77,317.58,304.64,320.12,306.51,320.15Zm-24.2-1.21c0,1.8,2.51,1.75,2.85.19A1.43,1.43,0,1,0,282.31,318.94Z"/><path d="M277.29,191.84c22.1,1.54,23.2-7.63,18.48,15.8-2.75,18.12-3.76,36.43-5.46,54.67C285.5,239.14,281.63,215.27,277.29,191.84Z"/><path d="M301.31,191.83c25.26-.37,22.19-3.81,17.48,21.24-3.11,16.41-5.75,33-9.12,49.3-1.12-10.08-1.7-20.21-2.66-30.31A363.28,363.28,0,0,0,301.31,191.83Z"/><path d="M275.71,260.74c-8.1-22-19.13-47.41-20.55-69,6.24.46,14-.93,19.55.5C272.06,215.06,271.94,238.05,275.71,260.74Z"/><path d="M325.2,191.82c1.12-.13,16.07-.19,19.83-.09-2.39,22.15-12.4,46.88-20.83,68.74.91-7.75,2.27-15.47,2.7-23.28C328,222.05,326.42,206.91,325.2,191.82Z"/><path d="M308,271.5c-17.88,0-17,3.39-15-12.68,1.62-18,2.67-36.06,5.61-53.9,1.76-15.43,2.51,3.23,3.8,8.37C305,232.62,306.05,252.14,308,271.5Z"/><path d="M251.65,191.79c5.34,26.68,14.62,52.34,24.72,77.49-15.28-14.58-23.51-35.18-28.54-55.35C247.24,207.14,239.27,190.7,251.65,191.79Z"/><path d="M329.68,304.17c.45,3.19,2.77,4.72-.69,6.41-3,1.4-9.37,11.25-11.93,6.9-3.1-3.24-6.43-13.84-11.93-8.41-2.71,1.46-10.2,13.42-12.38,9.28-6.64-14.93-9.95-5.94-19.51.09-.88.94-2.28.9-2.68-.45-.67-2.07-2.34-4-2.36-6.22.72-2.51,1.24-5.07,2.06-7.54C290.05,304,309.87,304.19,329.68,304.17Zm-35.83,8.61c0,1.73,2.79,1.6,2.87-.09A1.44,1.44,0,0,0,293.85,312.78Zm-21.42-1.28c0,1.82,2.66,1.59,2.84,0A1.42,1.42,0,1,0,272.43,311.5Zm48.82.34a1.44,1.44,0,1,0-2.86.24C318.66,313.81,321.13,313.26,321.25,311.84Z"/><path d="M289.2,271.47c-13.28,1.46-8.64-2.1-11.18-12.63-2.07-13.41-3.48-27-2.76-40.56.27-5.5.58-11,1.1-16.49C281,224.56,285,248.35,289.2,271.47Z"/><path d="M319.93,271.46c-1,0-8.74.46-9.24-.19,4.41-21.89,8.28-50,12.95-68.94.08.9.15,1.79.21,2.69C326.21,227.29,323.83,249.51,319.93,271.46Z"/><path d="M261.52,337.28c2.38-8.67,62.62-1.37,75.87-3.59C344.25,342.52,261.88,335.14,261.52,337.28Z"/></g></g></svg>